<svg id="Layer_1" xmlns="http://www.w3.org/2000/svg" viewBox="0 0 23.56 21.44">
    <defs>
        <style>.cls-1{fill:#3e3832;}</style>
    </defs>
    <title>binders</title>
    <path
        class="cls-1"
        d="M22,3a6,6,0,0,0-8.48,0l-12,12A4.5,4.5,0,1,0,7.9,21.4L19.38,9.88a2.49,2.49,0,0,0,0-3.53,2.54,2.54,0,0,0-3.53,0l-8.5,8.5a.5.5,0,0,0,0,.71.5.5,0,0,0,.7,0l8.5-8.5a1.54,1.54,0,0,1,2.13,0,1.51,1.51,0,0,1,0,2.12L7.19,20.7a3.5,3.5,0,1,1-4.95-4.95l12-12a5,5,0,1,1,7.07,7.07l-8.5,8.5a.5.5,0,0,0,0,.7.5.5,0,0,0,.71,0l8.5-8.5A6,6,0,0,0,22,3Z"
        transform="translate(-0.22 -1.28)"
    />
</svg>
